<?xml version="1.0" encoding="UTF-8" standalone="no"?><!DOCTYPE svg PUBLIC "-//W3C//DTD SVG 1.1//EN" "http://www.w3.org/Graphics/SVG/1.1/DTD/svg11.dtd"><svg width="100%" height="100%" viewBox="0 0 551 420" version="1.1" xmlns="http://www.w3.org/2000/svg" xmlns:xlink="http://www.w3.org/1999/xlink" xml:space="preserve" xmlns:serif="http://www.serif.com/" style="fill-rule:evenodd;clip-rule:evenodd;stroke-linecap:round;stroke-linejoin:round;stroke-miterlimit:1.5;"><path d="M390.617,104.176c-85.317,-3.852 -154.742,69.338 -154.742,154.742c0,85.404 69.398,151.529 154.742,154.742c22.842,0.86 51.805,-2.555 76.32,-20.306l49.714,14.004l-11.903,-51.114c6.854,-6.012 40.517,-37.929 40.611,-97.326c0.107,-68.583 -54.399,-139.25 -128.359,-151.844c-8.403,-1.431 -17.186,-2.482 -26.383,-2.898Z" style="fill:#fff;"/><clipPath id="_clip1"><path d="M390.617,104.176c-85.317,-3.852 -154.742,69.338 -154.742,154.742c0,85.404 69.398,151.529 154.742,154.742c22.842,0.86 51.805,-2.555 76.32,-20.306l49.714,14.004l-11.903,-51.114c6.854,-6.012 40.517,-37.929 40.611,-97.326c0.107,-68.583 -54.399,-139.25 -128.359,-151.844c-8.403,-1.431 -17.186,-2.482 -26.383,-2.898Z"/></clipPath><g clip-path="url(#_clip1)"><circle cx="326.625" cy="246.531" r="11.25" style="fill:#898989;stroke:#898989;stroke-width:11.25px;"/><circle cx="386.625" cy="247.281" r="11.25" style="fill:#898989;stroke:#898989;stroke-width:11.25px;"/><circle cx="449.625" cy="248.031" r="11.25" style="fill:#898989;stroke:#898989;stroke-width:11.25px;"/></g><path d="M390.617,104.176c-85.317,-3.852 -154.742,69.338 -154.742,154.742c0,85.404 69.398,151.529 154.742,154.742c22.842,0.86 51.805,-2.555 76.32,-20.306l49.714,14.004l-11.903,-51.114c6.854,-6.012 40.517,-37.929 40.611,-97.326c0.107,-68.583 -54.399,-139.25 -128.359,-151.844c-8.403,-1.431 -17.186,-2.482 -26.383,-2.898Z" style="fill:none;stroke:#898989;stroke-width:11.25px;"/><path d="M171.375,5.781c91.387,-4.127 165.75,74.27 165.75,165.75c0,91.48 -74.335,162.308 -165.75,165.75c-24.467,0.921 -55.491,-2.736 -81.75,-21.75l-53.25,15l4.5,-52.5c-7.342,-6.44 -35.15,-42.877 -35.25,-106.5c-0.115,-73.462 58.269,-149.157 137.491,-162.647c9,-1.533 18.408,-2.658 28.259,-3.103Z" style="fill:#fff;"/><clipPath id="_clip2"><path d="M171.375,5.781c91.387,-4.127 165.75,74.27 165.75,165.75c0,91.48 -74.335,162.308 -165.75,165.75c-24.467,0.921 -55.491,-2.736 -81.75,-21.75l-53.25,15l4.5,-52.5c-7.342,-6.44 -35.15,-42.877 -35.25,-106.5c-0.115,-73.462 58.269,-149.157 137.491,-162.647c9,-1.533 18.408,-2.658 28.259,-3.103Z"/></clipPath><g clip-path="url(#_clip2)"><circle cx="117.375" cy="116.781" r="11.25" style="fill:#898989;stroke:#898989;stroke-width:11.25px;"/><circle cx="228.375" cy="116.781" r="11.25" style="fill:#898989;stroke:#898989;stroke-width:11.25px;"/></g><path d="M171.375,5.781c91.387,-4.127 165.75,74.27 165.75,165.75c0,91.48 -74.335,162.308 -165.75,165.75c-24.467,0.921 -55.491,-2.736 -81.75,-21.75l-53.25,15l4.5,-52.5c-7.342,-6.44 -35.15,-42.877 -35.25,-106.5c-0.115,-73.462 58.269,-149.157 137.491,-162.647c9,-1.533 18.408,-2.658 28.259,-3.103Z" style="fill:none;stroke:#898989;stroke-width:11.25px;"/><path d="M247.479,182.691c-0.285,30.444 -34.203,54.844 -75.693,54.455c-41.491,-0.389 -74.945,-25.422 -74.659,-55.865c17.455,9.297 45.033,16.972 75.021,17.253c29.988,0.281 57.704,-6.874 75.331,-15.843Z" style="fill:#898989;stroke:#898989;stroke-width:0.78px;"/></svg>